<svg xmlns="http://www.w3.org/2000/svg" version="1.1" xmlns:xlink="http://www.w3.org/1999/xlink" xmlns:svgjs="http://svgjs.dev/svgjs" width="2000" height="454" viewBox="0 0 2000 454"><g transform="matrix(1,0,0,1,-1.2121212121212466,-0.13172850684787818)"><svg viewBox="0 0 396 90" data-background-color="#ede1d1" preserveAspectRatio="xMidYMid meet" height="454" width="2000" xmlns="http://www.w3.org/2000/svg" xmlns:xlink="http://www.w3.org/1999/xlink"><g id="tight-bounds" transform="matrix(1,0,0,1,0.2400000000000091,0.02611358065266245)"><svg viewBox="0 0 395.52 89.94777283869468" height="89.94777283869468" width="395.52"><g><svg viewBox="0 0 608.4955844757349 138.3819341772152" height="89.94777283869468" width="395.52"><g><rect width="9.029975133326582" height="120.1579746835443" x="419.15867835949365" y="9.111979746835445" fill="#cf3d3d" opacity="1" stroke-width="0" stroke="transparent" fill-opacity="1" class="rect-qz-0" data-fill-palette-color="primary" rx="1%" id="qz-0" data-palette-color="#cf3d3d"></rect></g><g transform="matrix(1,0,0,1,0,19.12514430379747)"><svg viewBox="0 0 395.52 100.13164556962025" height="100.13164556962025" width="395.52"><g id="textblocktransform"><svg viewBox="0 0 395.52 100.13164556962025" height="100.13164556962025" width="395.52" id="textblock"><g><svg viewBox="0 0 395.52 100.13164556962025" height="100.13164556962025" width="395.52"><g transform="matrix(1,0,0,1,0,0)"><svg width="395.52" viewBox="-3.2 -40.45 233.03 59" height="100.13164556962025" data-palette-color="#cf3d3d"><path d="M59.45-35.3L59.45-35.3 57.3-34.9Q53.45-28.25 49.9-17L49.9-17Q48.55-12.75 46.1-7.23 43.65-1.7 40.65 3L40.65 3Q36.6 9.3 29.88 13.38 23.15 17.45 17.6 18.2L17.6 18.2Q15.05 18.55 11.8 18.55 8.55 18.55 5.1 17.4L5.1 17.4Q-0.3 15.6-2.3 11.5L-2.3 11.5Q-3.2 9.6-3.2 7.05-3.2 4.5-1.85 1.05L-1.85 1.05Q-0.9-1.25 1.5-3.25 3.9-5.25 5.25-5.3L5.25-5.3Q5.85-5.35 5.85-5.1L5.85-5.1Q5.8-4.9 5.2-4.6L5.2-4.6Q3.6-3.95 1.65-1.75-0.3 0.45-0.93 2.68-1.55 4.9-1.55 6.1L-1.55 6.1Q-1.55 9.75 0.4 12L0.4 12Q1.75 13.5 3.75 14.7 5.75 15.9 8.05 16.35L8.05 16.35Q11.45 17 13.45 17 15.45 17 17 16.6L17 16.6Q20.4 15.85 23.58 14.1 26.75 12.35 29.2 10.28 31.65 8.2 34.08 5.15 36.5 2.1 38.15-0.4 39.8-2.9 41.65-6.4L41.65-6.4Q44.65-12.1 47.8-19.5L47.8-19.5Q51.75-28.3 55.8-34.7L55.8-34.7Q48.85-33.55 41.65-29.7L41.65-29.7Q38-27.75 35.4-24.75L35.4-24.75Q32.05-20.95 32.05-16.6L32.05-16.6Q32.05-14.25 33.18-12.95 34.3-11.65 35.55-11.65 36.8-11.65 38.3-12.2 39.8-12.75 41-14.1L41-14.1Q42.9-16.3 42.9-19.15L42.9-19.15Q42.9-20.35 42.55-20.75L42.55-20.75Q41.95-21.15 42.45-21.5L42.45-21.5Q43-21.8 43.6-21.15L43.6-21.15Q44.1-20.05 44.1-18.57 44.1-17.1 43-15.2L43-15.2Q41.15-12.05 37.9-10.9L37.9-10.9Q36.4-10.4 35.05-10.4L35.05-10.4Q32.8-10.4 31-11.85L31-11.85Q28.7-13.75 28.7-16.95L28.7-16.95Q28.7-21 31.6-24.7L31.6-24.7Q33.8-27.55 36.77-29.4 39.75-31.25 43.5-32.7L43.5-32.7Q49.55-35.05 56.65-36L56.65-36Q57.25-37 58.45-38.35 59.65-39.7 60.45-39.95 61.25-40.2 61.75-40.2L61.75-40.2Q63.5-40.2 63.5-38.7L63.5-38.7Q63.45-37.35 62.4-36.63 61.35-35.9 59.45-35.3ZM61-38.6L61-38.6Q60.9-38.6 60.78-38.55 60.65-38.5 60.43-38.33 60.2-38.15 60-38 59.8-37.85 59.53-37.55 59.25-37.25 59.08-37.08 58.9-36.9 58.6-36.58 58.3-36.25 58.2-36.15L58.2-36.15Q61.65-36.75 61.6-38L61.6-38Q61.5-38.6 61-38.6ZM49.4-2.9L49.4-2.9Q49.4-5.05 51.25-8.1L51.25-8.1Q50.45-8.1 50.8-8.9L50.8-8.9 51.7-10.65Q53.4-13.9 54.5-16.15L54.5-16.15Q55-17.2 56.45-17.2L56.45-17.2 59.5-17.2Q57.7-15.9 55.87-12.18 54.05-8.45 53.05-6.33 52.05-4.2 52.05-3.1 52.05-2 52.42-1.55 52.8-1.1 53.45-1.1L53.45-1.1Q54.4-1.1 56.1-3.1L56.1-3.1Q58.75-6.2 63.55-16.15L63.55-16.15Q64.1-17.2 65.5-17.2L65.5-17.2 68.2-17.2Q67.1-16.35 66.47-15.45 65.85-14.55 64.75-12.25L64.75-12.25Q61.75-6.25 61.4-4.3L61.4-4.3Q61.25-3.6 61.25-3L61.25-3Q61.25-1.4 62.35-1.3L62.35-1.3Q65.05-1.3 69-9.65L69-9.65Q69.3-10.35 69.6-10.2 69.9-10.05 69.9-9.8 69.9-9.55 69.45-8.65 69-7.75 68.57-6.9 68.15-6.05 67.27-4.58 66.4-3.1 65.65-2.25L65.65-2.25Q63.7-0.05 61.82-0.05 59.95-0.05 59.25-1.7L59.25-1.7Q58.95-2.45 58.95-3.6 58.95-4.75 59.45-6.45L59.45-6.45Q55.8-0.05 52.7-0.05L52.7-0.05Q50-0.05 49.55-2.3L49.55-2.3Q49.4-2.55 49.4-2.9ZM73.2-0.95L73.2-0.95Q73.85-0.85 74.1-0.85L74.1-0.85Q76.1-0.85 78.05-3.2L78.05-3.2Q79.1-4.5 81.8-9.75L81.8-9.75Q81.9-10 82.15-10L82.15-10Q82.6-10.05 82.6-9.65L82.6-9.65Q82.6-9.55 82.37-9.08 82.15-8.6 81.95-8.13 81.75-7.65 81.3-6.75 80.85-5.85 80.52-5.3 80.2-4.75 79.7-3.95 79.2-3.15 78.7-2.7L78.7-2.7 77.65-1.6Q76.8-0.75 75.65-0.4L75.65-0.4Q73.8 0.2 72.05-0.3L72.05-0.3Q70.9 0.2 70 0.2L70 0.2Q66.45 0.2 65.7-2.6L65.7-2.6Q65.55-3.25 65.55-4.17 65.55-5.1 66.17-5.95 66.8-6.8 67.5-6.85L67.5-6.85Q70.05-11.7 71.85-15.6L71.85-15.6Q73.85-19.85 76.5-19.85L76.5-19.85Q77.2-19.85 77.87-19.53 78.55-19.2 78.37-18.8 78.2-18.4 77.65-18.65 77.1-18.9 76.7-18.9 76.3-18.9 76-18.75L76-18.75Q74.3-17.95 74.3-15.3L74.3-15.3Q74.3-13.9 74.7-13 75.1-12.1 75.6-11.05L75.6-11.05Q76.75-8.45 76.75-6.8L76.75-6.8Q76.75-5.15 75.7-3.55 74.65-1.95 73.2-0.95ZM71.5-1.3L71.5-1.3Q73.7-3 73.7-6.8L73.7-6.8Q73.7-8.35 73.35-11.05 73-13.75 73-14.7 73-15.65 73.05-16L73.05-16Q69.25-8.4 68.35-6.75L68.35-6.75Q69.4-6.75 69.4-5.25L69.4-5.25Q69.4-2.3 71.5-1.3ZM67.75-2.65L67.75-2.65Q67.75-2.35 67.8-2L67.8-2Q68.2-0.65 69.65-0.65L69.65-0.65Q70.25-0.65 70.65-0.85L70.65-0.85Q68.8-2 68.65-4.6L68.65-4.6Q67.75-3.7 67.75-2.65ZM80.49-4L80.49-4Q80.49-8.15 84.49-17.9L84.49-17.9 81.89-17.9Q81.64-17.9 81.57-18.18 81.49-18.45 81.62-18.73 81.74-19 81.99-19L81.99-19 84.99-19Q86.79-22.95 88.34-25.6 89.89-28.25 91.19-29.18 92.49-30.1 93.07-30.1 93.64-30.1 93.89-30L93.89-30Q95.04-29.45 95.04-27.73 95.04-26 93.89-23.55 92.74-21.1 91.64-19L91.64-19 94.04-19Q94.29-19 94.37-18.73 94.44-18.45 94.32-18.18 94.19-17.9 93.94-17.9L93.94-17.9 91.04-17.9Q88.29-13.25 84.39-9.65L84.39-9.65 83.24-4.55Q83.09-3.9 83.09-3.28 83.09-2.65 83.44-2 83.79-1.35 84.54-1.35L84.54-1.35Q85.39-1.35 86.44-1.95L86.44-1.95Q88.84-3.75 91.74-9.5L91.74-9.5Q91.94-9.95 92.22-10.05 92.49-10.15 92.54-9.93 92.59-9.7 92.39-9.2L92.39-9.2Q90.74-5.75 89.79-4.3L89.79-4.3Q87.09 0.05 84.04 0.05L84.04 0.05Q82.49 0.05 81.49-1.1 80.49-2.25 80.49-4ZM88.04-19L90.54-19Q93.84-24.9 93.84-27.2L93.84-27.2Q93.84-28.2 93.49-28.2L93.49-28.2Q92.94-28.2 91.82-26.6 90.69-25 88.04-19L88.04-19ZM89.89-17.9L89.89-17.9 87.54-17.9Q86.94-16.5 84.84-11.25L84.84-11.25Q87.54-14.05 89.89-17.9ZM145.29-2.35L145.29-2.35Q145.29 2.4 149.14 2.4L149.14 2.4Q152.74 2.4 158.04-1.85L158.04-1.85Q163.84-6.45 165.99-11.55L165.99-11.55Q168.44-17.3 168.44-21.35 168.44-25.4 166.81-27.45 165.19-29.5 162.34-29.5L162.34-29.5Q161.69-29.5 160.99-29.4L160.99-29.4Q159.79-29.1 159.21-29.1 158.64-29.1 158.64-29.4L158.64-29.4Q158.64-29.85 159.56-30.25 160.49-30.65 160.96-30.65 161.44-30.65 161.74-30.65 162.04-30.65 162.44-30.65L162.44-30.65Q165.29-30.65 167.66-28.4 170.04-26.15 170.74-21.8L170.74-21.8Q170.89-20.75 170.89-19.65L170.89-19.65Q170.89-15.95 169.14-11.25L169.14-11.25Q166.69-5.05 160.71-0.7 154.74 3.65 149.74 3.65L149.74 3.65Q144.54 3.65 143.34-1.15L143.34-1.15Q142.99-2.4 142.99-4.55 142.99-6.7 144.04-10.15L144.04-10.15Q141.34-5.65 137.04-0.4L137.04-0.4Q134.69 2.4 132.24 4.25L132.24 4.25Q129.64 6.2 127.84 6.2L127.84 6.2Q124.29 6.2 124.29 1.9L124.29 1.9Q124.29-3.15 130.84-18.7L130.84-18.7Q134.94-28.6 134.94-33.55L134.94-33.55Q134.94-36.75 133.01-37.98 131.09-39.2 128.44-39.2L128.44-39.2Q127.29-39.2 126.04-38.95L126.04-38.95Q117.19-37.15 110.34-29.4L110.34-29.4Q106.94-25.5 105.64-21.93 104.34-18.35 104.16-16.63 103.99-14.9 103.99-13.78 103.99-12.65 104.41-11.2 104.84-9.75 105.89-8.5L105.89-8.5Q107.84-6.25 111.34-6.25L111.34-6.25Q117.14-6.25 120.54-12.3L120.54-12.3Q122.29-15.4 122.29-17.9L122.29-17.9Q122.29-22 118.64-22L118.64-22Q118.04-22 117.14-21.85 116.24-21.7 116.29-22.05 116.34-22.4 117.64-22.8 118.94-23.2 120.24-23.2L120.24-23.2Q122.84-23.2 124.04-21.2L124.04-21.2Q124.79-19.95 124.79-18.25 124.79-16.55 123.84-14.3L123.84-14.3Q121.29-8.45 114.69-5.7L114.69-5.7Q112.94-4.95 111.44-4.95L111.44-4.95Q106.54-4.95 103.64-8.45L103.64-8.45Q101.59-10.85 101.04-14.65L101.04-14.65Q100.94-15.4 100.94-16.2L100.94-16.2Q100.94-19.4 102.56-23.13 104.19-26.85 106.99-30.05 109.79-33.25 113.09-35.4 116.39-37.55 120.04-39L120.04-39Q123.84-40.45 127.09-40.45 130.34-40.45 132.99-39.45L132.99-39.45Q137.79-37.35 137.79-31.4L137.79-31.4Q137.79-26.5 134.44-18.9L134.44-18.9Q132.14-13.75 130.04-7.85L130.04-7.85Q127.04 0.55 127.04 3.1L127.04 3.1Q127.04 4.9 128.29 4.9L128.29 4.9Q128.94 4.9 129.84 4.3L129.84 4.3Q132.54 2.7 135.74-1.75 138.94-6.2 142.39-12.1 145.84-18 147.29-20 148.74-22 149.79-22L149.79-22Q150.04-22 150.29-21.9L150.29-21.9Q150.94-21.55 150.94-20.55 150.94-19.55 150.66-18.75 150.39-17.95 148.09-12.38 145.79-6.8 145.54-5.03 145.29-3.25 145.29-2.35ZM187.09-13.55Q186.19-12.65 184.54-9.47 182.89-6.3 182.56-4.73 182.24-3.15 182.24-2.18 182.24-1.2 182.99-1.2L182.99-1.2Q183.94-1.2 185.34-2.95L185.34-2.95Q187.39-5.5 189.39-9.6L189.39-9.6Q189.59-10.05 189.84-10.1L189.84-10.1Q190.24-10.25 190.24-9.8L190.24-9.8Q190.24-9.55 190.09-9.2L190.09-9.2Q185.49 0.1 182.34 0.1L182.34 0.1Q180.89 0.1 179.99-1.3L179.99-1.3Q179.54-2.05 179.54-3.3 179.54-4.55 180.04-6.35L180.04-6.35Q176.04 0.1 173.14 0.1L173.14 0.1Q172.34 0.1 171.69-0.4L171.69-0.4Q170.19-1.45 170.19-4L170.19-4Q170.19-8.9 174.44-13.95L174.44-13.95Q176.84-16.75 180.34-17.6L180.34-17.6Q181.29-17.85 182.14-17.85L182.14-17.85Q184.44-17.85 186.04-16.25L186.04-16.25Q186.54-15.7 186.34-15.2 186.14-14.7 185.49-14.8L185.49-14.8Q184.94-16.6 183.09-16.6L183.09-16.6Q180.94-16.6 177.79-13.2L177.79-13.2Q175.99-11.2 174.44-8.5L174.44-8.5Q172.49-5.25 172.49-3.3 172.49-1.35 173.74-1.35L173.74-1.35Q176.74-1.35 181.59-10.55L181.59-10.55Q182.54-12.4 183.19-13.08 183.84-13.75 184.84-13.75L184.84-13.75Q185.04-13.75 185.86-13.6 186.69-13.45 187.09-13.55L187.09-13.55ZM188.13-4L188.13-4Q188.13-8.15 192.13-17.9L192.13-17.9 189.53-17.9Q189.28-17.9 189.21-18.18 189.13-18.45 189.26-18.73 189.38-19 189.63-19L189.63-19 192.63-19Q194.43-22.95 195.98-25.6 197.53-28.25 198.83-29.18 200.13-30.1 200.71-30.1 201.28-30.1 201.53-30L201.53-30Q202.68-29.45 202.68-27.73 202.68-26 201.53-23.55 200.38-21.1 199.28-19L199.28-19 201.68-19Q201.93-19 202.01-18.73 202.08-18.45 201.96-18.18 201.83-17.9 201.58-17.9L201.58-17.9 198.68-17.9Q195.93-13.25 192.03-9.65L192.03-9.65 190.88-4.55Q190.73-3.9 190.73-3.28 190.73-2.65 191.08-2 191.43-1.35 192.18-1.35L192.18-1.35Q193.03-1.35 194.08-1.95L194.08-1.95Q196.48-3.75 199.38-9.5L199.38-9.5Q199.58-9.95 199.86-10.05 200.13-10.15 200.18-9.93 200.23-9.7 200.03-9.2L200.03-9.2Q198.38-5.75 197.43-4.3L197.43-4.3Q194.73 0.05 191.68 0.05L191.68 0.05Q190.13 0.05 189.13-1.1 188.13-2.25 188.13-4ZM195.68-19L198.18-19Q201.48-24.9 201.48-27.2L201.48-27.2Q201.48-28.2 201.13-28.2L201.13-28.2Q200.58-28.2 199.46-26.6 198.33-25 195.68-19L195.68-19ZM197.53-17.9L197.53-17.9 195.18-17.9Q194.58-16.5 192.48-11.25L192.48-11.25Q195.18-14.05 197.53-17.9ZM208.58-11.5L208.58-11.5Q210.33-13.6 210.33-15.05 210.33-16.5 209.13-16.5L209.13-16.5Q206.78-16.5 203.78-12.2L203.78-12.2Q202.83-10.85 201.93-8.65 201.03-6.45 201.03-4.67 201.03-2.9 201.76-1.8 202.48-0.7 204.01-0.7 205.53-0.7 206.83-1.43 208.13-2.15 209.31-3.73 210.48-5.3 211.08-6.35 211.68-7.4 212.73-9.5L212.73-9.5Q213.08-10.2 213.33-10.08 213.58-9.95 213.58-9.73 213.58-9.5 212.91-8.08 212.23-6.65 211.56-5.4 210.88-4.15 209.63-2.6L209.63-2.6Q207.38 0.2 203.48 0.2L203.48 0.2Q200.68 0.2 199.46-1.18 198.23-2.55 198.23-4.35L198.23-4.35Q198.23-6.55 199.31-9.15 200.38-11.75 201.78-13.65L201.78-13.65Q204.68-17.6 208.48-17.6L208.48-17.6Q210.33-17.6 211.16-16.73 211.98-15.85 211.98-14.7L211.98-14.7Q211.98-13 210.58-11.8L210.58-11.8Q209.88-11.15 209.41-11.15 208.93-11.15 208.58-11.5ZM221.28-2.25L221.28-2.25Q221.28-0.85 222.28-0.85L222.28-0.85Q224.63-0.85 228.93-9.65L228.93-9.65Q229.28-10.35 229.55-10.2 229.83-10.05 229.83-9.8 229.83-9.55 229.25-8.38 228.68-7.2 228.1-6.13 227.53-5.05 226.43-3.3L226.43-3.3Q224.13 0.2 221.53 0.2L221.53 0.2Q219.83 0.2 218.83-1.2L218.83-1.2Q218.38-1.85 218.38-2.98 218.38-4.1 218.88-5.7 219.38-7.3 221.63-10.9L221.63-10.9Q222.18-11.8 222.18-12.33 222.18-12.85 221.33-12.85 220.48-12.85 218.08-10.6L218.08-10.6Q214.48-7.3 211.08-0.7L211.08-0.7Q210.73 0.05 209.23 0.05L209.23 0.05Q207.88 0.15 207.53 0.35L207.53 0.35Q217.03-19.4 221.28-27.2L221.28-27.2Q222.23-28.95 222.95-29.65 223.68-30.35 224.68-30.35L224.68-30.35Q224.93-30.35 225.73-30.23 226.53-30.1 226.93-30.15L226.93-30.15Q225.43-28.6 221.55-21.58 217.68-14.55 214.13-7.3L214.13-7.3Q216.48-10.25 218.35-11.9 220.23-13.55 222.93-15.03 225.63-16.5 226.88-16.5L226.88-16.5Q227.18-16.5 227.43-16.4L227.43-16.4Q221.28-5.6 221.28-2.25Z" opacity="1" transform="matrix(1,0,0,1,0,0)" fill="#cf3d3d" class="wordmark-text-0" data-fill-palette-color="primary" id="text-0"></path></svg></g></svg></g></svg></g></svg></g><g transform="matrix(1,0,0,1,451.8273318523139,0)"><svg viewBox="0 0 156.6682526234209 138.3819341772152" height="138.3819341772152" width="156.6682526234209"><g><svg xmlns="http://www.w3.org/2000/svg" xmlns:xlink="http://www.w3.org/1999/xlink" version="1.1" x="0" y="0" viewBox="0 0 100 88.32799999999999" enable-background="new 0 0 100 88.33" xml:space="preserve" width="156.6682526234209" height="138.3819341772152" class="icon-icon-0" data-fill-palette-color="accent" id="icon-0"><path d="M96.168 40.333h-3.033v0.798h3.433v0.479h-3.433v0.918h3.433v0.479h-3.433v0.918h3.433v0.479h-3.433v0.918h3.433v0.479h-3.433v0.917h3.433v0.479h-3.433v0.798h3.033c2.116 0 3.832-1.715 3.832-3.832C100 42.048 98.284 40.333 96.168 40.333z" fill="#cf3d3d" data-fill-palette-color="accent"></path><g fill="#cf3d3d" data-fill-palette-color="accent"><g fill="#cf3d3d" data-fill-palette-color="accent"><rect x="89.111" y="39.302" width="3.221" height="9.726" fill="#cf3d3d" data-fill-palette-color="accent"></rect></g></g><rect x="5.515" y="76.121" transform="matrix(-0.7071 -0.7072 0.7072 -0.7071 -36.76 141.987)" width="11.029" height="4.974" fill="#cf3d3d" data-fill-palette-color="accent"></rect><rect x="4.296" y="80.476" transform="matrix(-0.707 -0.7072 0.7072 -0.707 -44.1437 145.0437)" width="7.351" height="2.379" fill="#cf3d3d" data-fill-palette-color="accent"></rect><rect x="71.786" y="7.235" transform="matrix(0.7071 0.7071 -0.7071 0.7071 29.515 -51.8117)" width="11.028" height="4.974" fill="#cf3d3d" data-fill-palette-color="accent"></rect><rect x="76.681" y="5.476" transform="matrix(0.7069 0.7073 -0.7073 0.7069 28.2628 -54.8812)" width="7.352" height="2.378" fill="#cf3d3d" data-fill-palette-color="accent"></rect><rect x="73.094" y="74.814" transform="matrix(-0.7071 0.7071 -0.7071 -0.7071 188.8508 76.376)" width="11.028" height="4.973" fill="#cf3d3d" data-fill-palette-color="accent"></rect><rect x="77.989" y="79.168" transform="matrix(-0.7071 0.7071 -0.7071 -0.7071 196.2322 79.4328)" width="7.351" height="2.379" fill="#cf3d3d" data-fill-palette-color="accent"></rect><rect x="4.208" y="8.544" transform="matrix(0.7072 -0.7071 0.7071 0.7072 -4.9523 10.1035)" width="11.026" height="4.973" fill="#cf3d3d" data-fill-palette-color="accent"></rect><rect x="2.988" y="6.784" transform="matrix(0.7072 -0.707 0.707 0.7072 -3.6856 7.0451)" width="7.351" height="2.378" fill="#cf3d3d" data-fill-palette-color="accent"></rect><path d="M73.18 48.384l-4.304-3.34-19.682-2.017c-0.328-1.794-1.594-3.349-3.407-3.973l5.015-18.422c1.416 0.21 2.797-0.664 3.182-2.079 0.386-1.416-0.361-2.871-1.688-3.406l0.68-2.499-0.657-0.179-0.681 2.498c-1.416-0.21-2.797 0.664-3.182 2.08-0.385 1.416 0.363 2.869 1.689 3.406l-5.015 18.421c-0.149-0.03-0.299-0.051-0.448-0.068l-2.739-12.437-5.518-3.553-1.92 6.273 5.91 11.228c-0.605 0.611-1.069 1.377-1.311 2.266-0.719 2.646 0.758 5.373 3.313 6.252l-0.868 3.188 0.657 0.18 0.868-3.188c2.359 0.479 4.719-0.742 5.717-2.882l19.265 4.109L73.18 48.384zM49.501 17.333c0.258-0.95 1.238-1.51 2.187-1.251 0.95 0.259 1.511 1.237 1.252 2.187-0.258 0.951-1.238 1.51-2.188 1.252C49.803 19.261 49.243 18.283 49.501 17.333zM39.283 30.624c-1.027 0.376-2.165-0.152-2.54-1.18-0.376-1.026 0.152-2.164 1.179-2.539 1.027-0.376 2.164 0.151 2.539 1.178C40.837 29.111 40.31 30.249 39.283 30.624zM47.146 44.774c-0.427 1.567-1.97 2.537-3.539 2.286-0.111-0.018-0.223-0.04-0.333-0.071-0.111-0.03-0.219-0.067-0.323-0.108-1.479-0.58-2.319-2.197-1.892-3.765 0.427-1.566 1.97-2.536 3.539-2.286 0.111 0.019 0.223 0.042 0.333 0.071 0.111 0.031 0.219 0.067 0.323 0.108C46.734 41.589 47.574 43.207 47.146 44.774z" fill="#cf3d3d" data-fill-palette-color="accent"></path><circle cx="44.165" cy="5.838" r="1.4" fill="#cf3d3d" data-fill-palette-color="accent"></circle><path d="M87.145 47.896c0.052-0.604 0.092-1.211 0.118-1.821 0.639-0.399 1.066-1.103 1.066-1.91 0-0.809-0.428-1.512-1.066-1.911-0.026-0.611-0.066-1.217-0.118-1.821 0.58-0.479 0.913-1.232 0.808-2.033-0.105-0.798-0.617-1.438-1.3-1.751-0.105-0.604-0.226-1.205-0.357-1.8 0.51-0.55 0.737-1.338 0.529-2.116-0.208-0.776-0.798-1.342-1.512-1.565-0.185-0.586-0.382-1.167-0.59-1.742 0.431-0.611 0.553-1.42 0.245-2.163C84.66 26.52 84 26.035 83.262 25.908c-0.26-0.556-0.531-1.104-0.813-1.646 0.35-0.663 0.366-1.482-0.036-2.18-0.402-0.697-1.121-1.092-1.871-1.12-0.329-0.516-0.67-1.021-1.02-1.521 0.262-0.704 0.173-1.522-0.318-2.163-0.492-0.641-1.261-0.938-2.01-0.865-0.392-0.466-0.792-0.925-1.203-1.373 0.169-0.734-0.025-1.534-0.597-2.106-0.571-0.57-1.371-0.764-2.104-0.595-0.448-0.411-0.906-0.811-1.372-1.204 0.072-0.749-0.226-1.518-0.867-2.01-0.64-0.491-1.457-0.58-2.161-0.317-0.5-0.35-1.006-0.691-1.521-1.02-0.029-0.75-0.425-1.469-1.122-1.872C65.55 5.515 64.73 5.531 64.067 5.88c-0.542-0.282-1.091-0.553-1.646-0.812-0.127-0.739-0.612-1.399-1.354-1.707-0.742-0.308-1.551-0.185-2.162 0.246-0.575-0.209-1.157-0.405-1.744-0.59-0.223-0.714-0.79-1.304-1.566-1.512-0.776-0.208-1.564 0.021-2.114 0.529-0.595-0.131-1.195-0.252-1.8-0.358-0.313-0.68-0.954-1.192-1.751-1.299-0.801-0.105-1.553 0.227-2.031 0.808-0.604-0.052-1.211-0.091-1.822-0.118C45.676 0.428 44.973 0 44.165 0s-1.512 0.428-1.91 1.067c-0.611 0.027-1.217 0.066-1.821 0.118-0.479-0.581-1.232-0.913-2.033-0.808-0.797 0.105-1.438 0.618-1.751 1.299-0.605 0.106-1.205 0.227-1.8 0.358-0.55-0.509-1.337-0.738-2.115-0.529-0.776 0.208-1.343 0.797-1.566 1.512-0.586 0.185-1.167 0.381-1.743 0.59-0.611-0.431-1.419-0.552-2.162-0.246-0.743 0.308-1.229 0.968-1.355 1.706-0.556 0.26-1.105 0.531-1.647 0.814-0.663-0.35-1.482-0.367-2.179 0.035-0.698 0.403-1.093 1.122-1.121 1.872-0.515 0.329-1.021 0.67-1.521 1.02-0.704-0.262-1.521-0.173-2.161 0.317-0.641 0.493-0.939 1.261-0.866 2.01-0.466 0.393-0.925 0.792-1.374 1.204-0.733-0.169-1.533 0.025-2.104 0.596-0.571 0.571-0.766 1.371-0.597 2.105-0.411 0.449-0.812 0.907-1.203 1.373-0.749-0.073-1.517 0.225-2.008 0.865-0.491 0.64-0.581 1.458-0.319 2.163-0.35 0.5-0.691 1.006-1.02 1.521-0.75 0.029-1.469 0.424-1.872 1.121-0.403 0.698-0.386 1.517-0.036 2.18-0.282 0.542-0.553 1.091-0.812 1.646-0.739 0.126-1.398 0.612-1.706 1.355-0.307 0.741-0.186 1.55 0.245 2.162-0.209 0.576-0.405 1.157-0.59 1.743-0.714 0.223-1.304 0.791-1.512 1.566-0.208 0.777 0.02 1.564 0.529 2.115-0.131 0.595-0.252 1.195-0.358 1.8-0.681 0.313-1.193 0.954-1.298 1.75-0.106 0.801 0.227 1.554 0.807 2.033-0.052 0.604-0.092 1.211-0.118 1.821C0.428 42.653 0 43.356 0 44.166c0 0.808 0.428 1.511 1.067 1.909 0.026 0.611 0.066 1.218 0.118 1.822-0.581 0.479-0.912 1.231-0.807 2.032 0.105 0.799 0.617 1.438 1.298 1.752 0.106 0.604 0.227 1.203 0.358 1.8-0.509 0.55-0.737 1.336-0.529 2.114 0.208 0.775 0.797 1.343 1.511 1.566 0.185 0.587 0.382 1.168 0.59 1.742-0.43 0.611-0.551 1.42-0.244 2.162 0.308 0.742 0.967 1.228 1.705 1.355 0.26 0.555 0.531 1.104 0.813 1.646-0.35 0.663-0.366 1.482 0.037 2.179 0.403 0.697 1.121 1.093 1.871 1.122 0.329 0.514 0.67 1.021 1.021 1.521-0.262 0.704-0.172 1.521 0.319 2.161 0.492 0.641 1.259 0.938 2.008 0.866 0.392 0.466 0.792 0.925 1.203 1.373-0.169 0.733 0.025 1.533 0.597 2.104 0.572 0.572 1.372 0.767 2.104 0.598 0.449 0.411 0.908 0.812 1.374 1.203-0.073 0.749 0.224 1.517 0.866 2.01 0.64 0.491 1.457 0.58 2.161 0.317 0.5 0.35 1.006 0.691 1.52 1.021 0.029 0.75 0.423 1.468 1.122 1.871 0.697 0.402 1.517 0.386 2.18 0.036 0.542 0.282 1.091 0.553 1.646 0.812 0.127 0.738 0.612 1.398 1.356 1.706 0.742 0.308 1.55 0.185 2.162-0.245 0.575 0.209 1.156 0.406 1.742 0.591 0.222 0.715 0.789 1.305 1.566 1.512 0.778 0.208 1.565-0.021 2.115-0.529 0.596 0.131 1.195 0.251 1.8 0.357 0.313 0.682 0.953 1.194 1.751 1.298 0.801 0.106 1.554-0.226 2.033-0.806 0.604 0.051 1.211 0.091 1.821 0.118 0.399 0.638 1.103 1.066 1.911 1.066 0.808 0 1.512-0.429 1.91-1.066 0.611-0.027 1.219-0.067 1.823-0.118 0.479 0.579 1.232 0.912 2.033 0.806 0.798-0.104 1.438-0.617 1.751-1.298 0.604-0.106 1.203-0.228 1.798-0.357 0.55 0.509 1.338 0.737 2.115 0.529 0.776-0.208 1.344-0.798 1.566-1.513 0.586-0.185 1.168-0.381 1.742-0.591 0.611 0.431 1.421 0.554 2.163 0.246 0.743-0.308 1.229-0.969 1.354-1.707 0.556-0.26 1.104-0.529 1.646-0.812 0.663 0.35 1.482 0.366 2.181-0.036 0.697-0.403 1.092-1.122 1.12-1.872 0.515-0.329 1.021-0.67 1.521-1.021 0.704 0.263 1.521 0.175 2.162-0.317s0.938-1.261 0.865-2.01c0.466-0.392 0.925-0.792 1.373-1.203 0.732 0.169 1.533-0.025 2.104-0.597 0.571-0.57 0.766-1.37 0.597-2.104 0.411-0.448 0.811-0.907 1.202-1.372 0.75 0.071 1.519-0.225 2.011-0.866 0.491-0.641 0.58-1.458 0.317-2.162 0.35-0.499 0.691-1.006 1.021-1.521 0.749-0.029 1.468-0.425 1.871-1.122 0.402-0.696 0.385-1.516 0.035-2.178 0.283-0.543 0.554-1.092 0.813-1.646 0.738-0.128 1.398-0.613 1.707-1.356 0.307-0.742 0.185-1.551-0.246-2.161 0.209-0.576 0.405-1.156 0.59-1.742 0.714-0.224 1.305-0.791 1.513-1.566 0.208-0.778-0.021-1.565-0.529-2.115 0.131-0.596 0.251-1.195 0.356-1.799 0.682-0.313 1.194-0.953 1.3-1.753C88.058 49.127 87.726 48.375 87.145 47.896zM49.317 3.736l-5.152 5.153-5.153-5.153H49.317zM44.165 77.322c-18.312 0-33.157-14.845-33.157-33.157 0-18.312 14.845-33.157 33.157-33.157 18.312 0 33.157 14.845 33.157 33.157C77.322 62.477 62.477 77.322 44.165 77.322z" fill="#cf3d3d" data-fill-palette-color="accent"></path></svg></g></svg></g></svg></g><defs></defs></svg><rect width="395.52" height="89.94777283869468" fill="none" stroke="none" visibility="hidden"></rect></g></svg></g></svg>